<svg id="visual" viewBox="0 0 900 150" width="900" height="150" xmlns="http://www.w3.org/2000/svg" xmlns:xlink="http://www.w3.org/1999/xlink" version="1.1"><path d="M0 42L11.5 39C23 36 46 30 69 27.7C92 25.3 115 26.7 138.2 30.2C161.3 33.7 184.7 39.3 207.8 39.8C231 40.3 254 35.7 277 31.8C300 28 323 25 346 26.8C369 28.7 392 35.3 415.2 37.8C438.3 40.3 461.7 38.7 484.8 37.5C508 36.3 531 35.7 554 32.3C577 29 600 23 623 22.3C646 21.7 669 26.3 692.2 30.5C715.3 34.7 738.7 38.3 761.8 38.8C785 39.3 808 36.7 831 35.8C854 35 877 36 888.5 36.5L900 37L900 151L888.5 151C877 151 854 151 831 151C808 151 785 151 761.8 151C738.7 151 715.3 151 692.2 151C669 151 646 151 623 151C600 151 577 151 554 151C531 151 508 151 484.8 151C461.7 151 438.3 151 415.2 151C392 151 369 151 346 151C323 151 300 151 277 151C254 151 231 151 207.8 151C184.7 151 161.3 151 138.2 151C115 151 92 151 69 151C46 151 23 151 11.5 151L0 151Z" fill="#ff9729"></path><path d="M0 57L11.5 54.8C23 52.7 46 48.3 69 47.7C92 47 115 50 138.2 49.8C161.3 49.7 184.7 46.3 207.8 45.2C231 44 254 45 277 47.8C300 50.7 323 55.3 346 55.8C369 56.3 392 52.7 415.2 54.3C438.3 56 461.7 63 484.8 66C508 69 531 68 554 65.3C577 62.7 600 58.3 623 59C646 59.7 669 65.3 692.2 64.2C715.3 63 738.7 55 761.8 51.8C785 48.7 808 50.3 831 53.2C854 56 877 60 888.5 62L900 64L900 151L888.5 151C877 151 854 151 831 151C808 151 785 151 761.8 151C738.7 151 715.3 151 692.2 151C669 151 646 151 623 151C600 151 577 151 554 151C531 151 508 151 484.8 151C461.7 151 438.3 151 415.2 151C392 151 369 151 346 151C323 151 300 151 277 151C254 151 231 151 207.8 151C184.7 151 161.3 151 138.2 151C115 151 92 151 69 151C46 151 23 151 11.5 151L0 151Z" fill="#ffb162"></path><path d="M0 88L11.5 84C23 80 46 72 69 72.2C92 72.3 115 80.7 138.2 81.7C161.3 82.7 184.7 76.3 207.8 72.7C231 69 254 68 277 69.8C300 71.7 323 76.3 346 79.5C369 82.7 392 84.3 415.2 85.3C438.3 86.3 461.7 86.7 484.8 87.5C508 88.3 531 89.7 554 87.3C577 85 600 79 623 75C646 71 669 69 692.2 67.8C715.3 66.7 738.7 66.3 761.8 70.3C785 74.3 808 82.7 831 85.3C854 88 877 85 888.5 83.5L900 82L900 151L888.5 151C877 151 854 151 831 151C808 151 785 151 761.8 151C738.7 151 715.3 151 692.2 151C669 151 646 151 623 151C600 151 577 151 554 151C531 151 508 151 484.8 151C461.7 151 438.3 151 415.2 151C392 151 369 151 346 151C323 151 300 151 277 151C254 151 231 151 207.8 151C184.7 151 161.3 151 138.2 151C115 151 92 151 69 151C46 151 23 151 11.5 151L0 151Z" fill="#ffc995"></path><path d="M0 89L11.5 92.3C23 95.7 46 102.3 69 103C92 103.7 115 98.3 138.2 99C161.3 99.7 184.7 106.3 207.8 109.7C231 113 254 113 277 112C300 111 323 109 346 108.7C369 108.3 392 109.7 415.2 110C438.3 110.3 461.7 109.7 484.8 106C508 102.3 531 95.7 554 95.3C577 95 600 101 623 102C646 103 669 99 692.2 97.8C715.3 96.7 738.7 98.3 761.8 98.7C785 99 808 98 831 99.2C854 100.3 877 103.7 888.5 105.3L900 107L900 151L888.5 151C877 151 854 151 831 151C808 151 785 151 761.8 151C738.7 151 715.3 151 692.2 151C669 151 646 151 623 151C600 151 577 151 554 151C531 151 508 151 484.8 151C461.7 151 438.3 151 415.2 151C392 151 369 151 346 151C323 151 300 151 277 151C254 151 231 151 207.8 151C184.7 151 161.3 151 138.2 151C115 151 92 151 69 151C46 151 23 151 11.5 151L0 151Z" fill="#ffe2c8"></path><path d="M0 112L11.5 115.3C23 118.7 46 125.3 69 129.3C92 133.3 115 134.7 138.2 132C161.3 129.3 184.7 122.7 207.8 122.2C231 121.7 254 127.3 277 128C300 128.7 323 124.3 346 121.2C369 118 392 116 415.2 116.3C438.3 116.7 461.7 119.3 484.8 122.7C508 126 531 130 554 131.8C577 133.7 600 133.3 623 130.5C646 127.7 669 122.3 692.2 122C715.3 121.7 738.7 126.3 761.8 127C785 127.7 808 124.3 831 122.2C854 120 877 119 888.5 118.5L900 118L900 151L888.5 151C877 151 854 151 831 151C808 151 785 151 761.8 151C738.7 151 715.3 151 692.2 151C669 151 646 151 623 151C600 151 577 151 554 151C531 151 508 151 484.8 151C461.7 151 438.3 151 415.2 151C392 151 369 151 346 151C323 151 300 151 277 151C254 151 231 151 207.8 151C184.7 151 161.3 151 138.2 151C115 151 92 151 69 151C46 151 23 151 11.5 151L0 151Z" fill="#fcfcfc"></path></svg>