<svg id="visual" viewBox="0 0 900 300" width="900" height="300" xmlns="http://www.w3.org/2000/svg" xmlns:xlink="http://www.w3.org/1999/xlink" version="1.1"><path d="M0 253L30 225.2C60 197.3 120 141.7 180 131.2C240 120.7 300 155.3 360 179.8C420 204.3 480 218.7 540 206.3C600 194 660 155 720 128.5C780 102 840 88 870 81L900 74L900 0L870 0C840 0 780 0 720 0C660 0 600 0 540 0C480 0 420 0 360 0C300 0 240 0 180 0C120 0 60 0 30 0L0 0Z" fill="#fcfcfc"></path><path d="M0 131L30 119.5C60 108 120 85 180 82C240 79 300 96 360 100.2C420 104.3 480 95.7 540 94.3C600 93 660 99 720 96.2C780 93.3 840 81.7 870 75.8L900 70L900 0L870 0C840 0 780 0 720 0C660 0 600 0 540 0C480 0 420 0 360 0C300 0 240 0 180 0C120 0 60 0 30 0L0 0Z" fill="#ffd4b5"></path><path d="M0 122L30 107.3C60 92.7 120 63.3 180 60.7C240 58 300 82 360 99.8C420 117.7 480 129.3 540 133.3C600 137.3 660 133.7 720 116.5C780 99.3 840 68.7 870 53.3L900 38L900 0L870 0C840 0 780 0 720 0C660 0 600 0 540 0C480 0 420 0 360 0C300 0 240 0 180 0C120 0 60 0 30 0L0 0Z" fill="#ffad6f"></path><path d="M0 11L30 12.3C60 13.7 120 16.3 180 16.2C240 16 300 13 360 17.2C420 21.3 480 32.7 540 45.7C600 58.7 660 73.3 720 78C780 82.7 840 77.3 870 74.7L900 72L900 0L870 0C840 0 780 0 720 0C660 0 600 0 540 0C480 0 420 0 360 0C300 0 240 0 180 0C120 0 60 0 30 0L0 0Z" fill="#fb8524"></path></svg>