<svg id="visual" viewBox="0 0 900 150" width="900" height="150" xmlns="http://www.w3.org/2000/svg" xmlns:xlink="http://www.w3.org/1999/xlink" version="1.1"><path d="M0 27L25 34C50 41 100 55 150 57.5C200 60 250 51 300 52C350 53 400 64 450 64.5C500 65 550 55 600 48.8C650 42.7 700 40.3 750 44C800 47.7 850 57.3 875 62.2L900 67L900 151L875 151C850 151 800 151 750 151C700 151 650 151 600 151C550 151 500 151 450 151C400 151 350 151 300 151C250 151 200 151 150 151C100 151 50 151 25 151L0 151Z" fill="#fac169"></path><path d="M0 55L25 61.3C50 67.7 100 80.3 150 81.5C200 82.7 250 72.3 300 69C350 65.7 400 69.3 450 67.8C500 66.3 550 59.7 600 57C650 54.3 700 55.7 750 58.7C800 61.7 850 66.3 875 68.7L900 71L900 151L875 151C850 151 800 151 750 151C700 151 650 151 600 151C550 151 500 151 450 151C400 151 350 151 300 151C250 151 200 151 150 151C100 151 50 151 25 151L0 151Z" fill="#f9ab4b"></path><path d="M0 119L25 118.8C50 118.7 100 118.3 150 112.8C200 107.3 250 96.7 300 94.5C350 92.3 400 98.7 450 102.3C500 106 550 107 600 107.3C650 107.7 700 107.3 750 107.8C800 108.3 850 109.7 875 110.3L900 111L900 151L875 151C850 151 800 151 750 151C700 151 650 151 600 151C550 151 500 151 450 151C400 151 350 151 300 151C250 151 200 151 150 151C100 151 50 151 25 151L0 151Z" fill="#f8922e"></path><path d="M0 120L25 122.2C50 124.3 100 128.7 150 127.7C200 126.7 250 120.3 300 115.2C350 110 400 106 450 109C500 112 550 122 600 127.3C650 132.7 700 133.3 750 133C800 132.7 850 131.3 875 130.7L900 130L900 151L875 151C850 151 800 151 750 151C700 151 650 151 600 151C550 151 500 151 450 151C400 151 350 151 300 151C250 151 200 151 150 151C100 151 50 151 25 151L0 151Z" fill="#f7770f"></path></svg>