<svg id="visual" viewBox="0 0 900 300" width="900" height="300" xmlns="http://www.w3.org/2000/svg" xmlns:xlink="http://www.w3.org/1999/xlink" version="1.1"><rect x="0" y="0" width="900" height="300" fill="#ffffff"></rect><path d="M0 139L21.5 145.7C43 152.3 86 165.7 128.8 164.3C171.7 163 214.3 147 257.2 149C300 151 343 171 385.8 177.3C428.7 183.7 471.3 176.3 514.2 173C557 169.7 600 170.3 642.8 165.2C685.7 160 728.3 149 771.2 145.8C814 142.7 857 147.3 878.5 149.7L900 152L900 301L878.5 301C857 301 814 301 771.2 301C728.3 301 685.7 301 642.8 301C600 301 557 301 514.2 301C471.3 301 428.7 301 385.8 301C343 301 300 301 257.2 301C214.3 301 171.7 301 128.8 301C86 301 43 301 21.5 301L0 301Z" fill="#fac169"></path><path d="M0 181L21.5 186.2C43 191.3 86 201.7 128.8 203.2C171.7 204.7 214.3 197.3 257.2 197.2C300 197 343 204 385.8 201.8C428.7 199.7 471.3 188.3 514.2 183C557 177.7 600 178.3 642.8 185.7C685.7 193 728.3 207 771.2 206.3C814 205.7 857 190.3 878.5 182.7L900 175L900 301L878.5 301C857 301 814 301 771.2 301C728.3 301 685.7 301 642.8 301C600 301 557 301 514.2 301C471.3 301 428.7 301 385.8 301C343 301 300 301 257.2 301C214.3 301 171.7 301 128.8 301C86 301 43 301 21.5 301L0 301Z" fill="#f9ab4b"></path><path d="M0 225L21.5 220.7C43 216.3 86 207.7 128.8 207.2C171.7 206.7 214.3 214.3 257.2 219.8C300 225.3 343 228.7 385.8 232.5C428.7 236.3 471.3 240.7 514.2 237.3C557 234 600 223 642.8 221.8C685.7 220.7 728.3 229.3 771.2 232C814 234.7 857 231.3 878.5 229.7L900 228L900 301L878.5 301C857 301 814 301 771.2 301C728.3 301 685.7 301 642.8 301C600 301 557 301 514.2 301C471.3 301 428.7 301 385.8 301C343 301 300 301 257.2 301C214.3 301 171.7 301 128.8 301C86 301 43 301 21.5 301L0 301Z" fill="#f8922e"></path><path d="M0 269L21.5 265.7C43 262.3 86 255.7 128.8 255.2C171.7 254.7 214.3 260.3 257.2 263C300 265.7 343 265.3 385.8 267.3C428.7 269.3 471.3 273.7 514.2 271.8C557 270 600 262 642.8 257.7C685.7 253.3 728.3 252.7 771.2 255.7C814 258.7 857 265.3 878.5 268.7L900 272L900 301L878.5 301C857 301 814 301 771.2 301C728.3 301 685.7 301 642.8 301C600 301 557 301 514.2 301C471.3 301 428.7 301 385.8 301C343 301 300 301 257.2 301C214.3 301 171.7 301 128.8 301C86 301 43 301 21.5 301L0 301Z" fill="#f7770f"></path></svg>